<?xml version="1.0" encoding="UTF-8"?>
<svg width="18px" height="18px" viewBox="0 0 18 18" version="1.1" xmlns="http://www.w3.org/2000/svg"
>
    <!-- Generator: sketchtool 52 (66869) - http://www.bohemiancoding.com/sketch -->
    <title>A105EEDB-95DE-4034-BC23-817EC6FE1107</title>
    <desc>Created with sketchtool.</desc>
    <g id="1280" stroke="none" stroke-width="1" fill="none" fill-rule="evenodd">
        <g id="SigninForm-/-AllInputEmpty-1440x1024" transform="translate(-832.000000, -385.000000)" fill="#FFFFFF"
           fill-rule="nonzero">
            <g id="Group-3" transform="translate(434.000000, 338.000000)">
                <g id="social_buttons-copy" transform="translate(388.000000, 36.000000)">
                    <g id="eds_button">
                        <g id="noun_Key_2039380"
                           transform="translate(19.500000, 20.000000) rotate(-90.000000) translate(-19.500000, -20.000000) translate(9.500000, 10.500000)">
                            <g id="Group" transform="translate(0.958206, 0.156959)">
                                <path d="M9.2428433,1.64147942 C10.7898561,3.19758618 11.2002295,5.46828408 10.4700091,7.40012451 L17.7194723,14.6922314 L18.0492254,17.8407724 L13.913633,17.1283985 L13.7406488,15.2142567 L11.8377338,15.0402482 L11.664731,13.1261802 L9.76181602,12.9521472 L7.35614385,10.5322957 C5.43559804,11.2668421 3.17818495,10.8540304 1.6311704,9.29792121 C-0.470725138,7.18366601 -0.470722202,3.75573708 1.63117138,1.64148188 C3.73306813,-0.472780702 7.14094875,-0.472780702 9.2428433,1.64147942 Z M5.26401639,3.20756749 C4.69077358,2.63095266 3.76135144,2.63095266 3.18810324,3.20757241 C2.61485872,3.78418724 2.61485969,4.71907829 3.18810275,5.29569559 C3.76134532,5.87231042 4.69076869,5.87230795 5.26401346,5.29569312 C5.83726141,4.71907337 5.83726043,3.78418232 5.26401639,3.20756749 Z"
                                      id="Shape"></path>
                            </g>
                        </g>
                    </g>
                </g>
            </g>
        </g>
    </g>
</svg>