<?xml version="1.0" encoding="UTF-8"?>
<svg width="16px" height="12px" viewBox="0 0 16 12" version="1.1" xmlns="http://www.w3.org/2000/svg"
>
    <!-- Generator: sketchtool 52 (66869) - http://www.bohemiancoding.com/sketch -->
    <title>D95FCC1A-D55E-4577-A5D1-11D50B0FDF88</title>
    <desc>Created with sketchtool.</desc>
    <g id="1280" stroke="none" stroke-width="1" fill="none" fill-rule="evenodd">
        <g id="SigninForm-/-AllInputEmpty-1440x1024" transform="translate(-876.000000, -637.000000)">
            <g id="sign_in_form" transform="translate(540.000000, 263.000000)">
                <g id="eye" transform="translate(336.000000, 372.000000)">
                    <g id="eye-o" transform="translate(0.937500, 2.796875)" fill="#000000" fill-opacity="0.25"
                       fill-rule="nonzero">
                        <path d="M14.115625,5.1984375 C14.1109375,5.1109375 13.9765625,4.678125 13.7890625,4.228125 C13.596875,3.7640625 13.271875,3.0921875 12.821875,2.53125 C12.2328125,1.79375 11.50625,1.2046875 10.6625,0.7828125 C9.6265625,0.2625 8.4140625,0 7.0609375,0 C5.709375,0 4.496875,0.2640625 3.4609375,0.784375 C2.6234375,1.203125 1.896875,1.790625 1.3015625,2.53125 C0.8515625,3.09375 0.528125,3.765625 0.3359375,4.2296875 C0.1484375,4.6796875 0.015625,5.1125 0.0109375,5.2 C0.0109375,5.2015625 0.0109375,5.2015625 0.0109375,5.203125 C0.0109375,5.2046875 0.0109375,5.2046875 0.0109375,5.20625 C0.015625,5.29375 0.15,5.7265625 0.3375,6.178125 C0.53125,6.6421875 0.8546875,7.3140625 1.303125,7.8734375 C1.8921875,8.6109375 2.61875,9.2 3.4625,9.621875 C4.5046875,10.14375 5.715625,10.4078125 7.0625,10.4078125 C8.4109375,10.4078125 9.621875,10.14375 10.6625,9.621875 C11.503125,9.2015625 12.2296875,8.6125 12.821875,7.875 C13.271875,7.3140625 13.596875,6.6421875 13.7890625,6.178125 C13.9765625,5.728125 14.1109375,5.2953125 14.115625,5.2078125 C14.115625,5.20625 14.115625,5.20625 14.115625,5.2046875 C14.115625,5.2015625 14.115625,5.2 14.115625,5.1984375 Z M12.95625,5.2015625 C12.8671875,5.4734375 12.521875,6.4546875 11.95,7.1671875 L11.9421875,7.175 C11.45625,7.784375 10.8546875,8.2703125 10.15625,8.621875 C9.2734375,9.0640625 8.2296875,9.2890625 7.05625,9.2890625 C5.88125,9.2890625 4.8390625,9.0640625 3.95625,8.621875 C3.259375,8.2734375 2.659375,7.7859375 2.1703125,7.1734375 C1.5953125,6.4578125 1.2484375,5.4734375 1.159375,5.2 C1.2484375,4.928125 1.5953125,3.9453125 2.1703125,3.2265625 C2.6609375,2.6140625 3.2625,2.128125 3.9578125,1.7796875 C4.8421875,1.3375 5.8859375,1.1140625 7.0609375,1.1140625 C8.240625,1.1140625 9.2828125,1.3375 10.159375,1.7796875 C10.85625,2.128125 11.45625,2.615625 11.9453125,3.228125 C12.5203125,3.946875 12.8671875,4.9296875 12.95625,5.2015625 Z M7.0609375,2.48125 C5.5671875,2.48125 4.353125,3.696875 4.353125,5.1890625 C4.353125,6.68125 5.56875,7.896875 7.0609375,7.896875 C8.553125,7.896875 9.76875,6.68125 9.76875,5.1890625 C9.76875,3.696875 8.5546875,2.48125 7.0609375,2.48125 Z M8.6546875,5.1890625 C8.6546875,5.6140625 8.4890625,6.0140625 8.1875,6.315625 C7.8859375,6.6171875 7.4859375,6.7828125 7.0609375,6.7828125 C6.6359375,6.7828125 6.2359375,6.6171875 5.934375,6.315625 C5.6328125,6.0140625 5.4671875,5.6140625 5.4671875,5.1890625 C5.4671875,4.7640625 5.6328125,4.3640625 5.934375,4.0625 C6.2359375,3.7609375 6.6359375,3.5953125 7.0609375,3.5953125 C7.4859375,3.5953125 7.8859375,3.7609375 8.1875,4.0625 C8.4890625,4.3640625 8.6546875,4.7640625 8.6546875,5.1890625 Z"
                              id="Shape"></path>
                    </g>
                    <rect id="Rectangle-15" x="0" y="0" width="16" height="16"></rect>
                </g>
            </g>
        </g>
    </g>
</svg>