<?xml version="1.0" encoding="UTF-8"?>
<svg width="16px" height="12px" viewBox="0 0 16 12" version="1.1" xmlns="http://www.w3.org/2000/svg"
>
    <!-- Generator: sketchtool 52 (66869) - http://www.bohemiancoding.com/sketch -->
    <title>28103EA6-425A-4351-B8B4-9BFFA53B041C</title>
    <desc>Created with sketchtool.</desc>
    <g id="1280" stroke="none" stroke-width="1" fill="none" fill-rule="evenodd">
        <g id="SigninForm-/-AllInputFilled-1440x1024-(1)" transform="translate(-876.000000, -536.000000)">
            <g id="form_input" transform="translate(461.000000, 355.000000)">
                <g id="eye" transform="translate(415.000000, 179.000000)">
                    <rect id="Rectangle-16" x="0" y="0" width="16" height="16"></rect>
                    <g opacity="0.65" transform="translate(0.937500, 2.796875)" fill="#000000" fill-rule="nonzero"
                       id="Shape">
                        <path d="M7.0609375,3.596875 C6.6359375,3.596875 6.2359375,3.7625 5.934375,4.0640625 C5.6328125,4.365625 5.4671875,4.765625 5.4671875,5.190625 C5.4671875,5.615625 5.6328125,6.015625 5.934375,6.3171875 C6.2359375,6.61875 6.6359375,6.784375 7.0609375,6.784375 C7.4859375,6.784375 7.8859375,6.61875 8.1875,6.3171875 C8.4890625,6.015625 8.6546875,5.615625 8.6546875,5.190625 C8.6546875,4.765625 8.4890625,4.365625 8.1875,4.0640625 C7.8875,3.7625 7.4859375,3.596875 7.0609375,3.596875 Z M14.115625,5.1984375 C14.1109375,5.1109375 13.9765625,4.678125 13.7890625,4.228125 C13.596875,3.7640625 13.271875,3.0921875 12.821875,2.53125 C12.2328125,1.79375 11.50625,1.2046875 10.6625,0.7828125 C9.6265625,0.2625 8.4140625,0 7.0609375,0 C5.709375,0 4.496875,0.2640625 3.4609375,0.784375 C2.6234375,1.203125 1.896875,1.790625 1.3015625,2.53125 C0.8515625,3.09375 0.528125,3.765625 0.3359375,4.2296875 C0.1484375,4.6796875 0.015625,5.1125 0.0109375,5.2 C0.0109375,5.2015625 0.0109375,5.2015625 0.0109375,5.203125 C0.0109375,5.2046875 0.0109375,5.2046875 0.0109375,5.20625 C0.015625,5.29375 0.15,5.7265625 0.3375,6.178125 C0.53125,6.6421875 0.8546875,7.3140625 1.303125,7.8734375 C1.8921875,8.6109375 2.61875,9.2 3.4625,9.621875 C4.5046875,10.14375 5.715625,10.4078125 7.0625,10.4078125 C8.4109375,10.4078125 9.621875,10.14375 10.6625,9.621875 C11.503125,9.2015625 12.2296875,8.6125 12.821875,7.875 C13.271875,7.3140625 13.596875,6.6421875 13.7890625,6.178125 C13.9765625,5.728125 14.1109375,5.2953125 14.115625,5.2078125 C14.115625,5.20625 14.115625,5.20625 14.115625,5.2046875 C14.115625,5.2015625 14.115625,5.2 14.115625,5.1984375 Z M7.0609375,7.8984375 C5.5671875,7.8984375 4.353125,6.6828125 4.353125,5.190625 C4.353125,3.6984375 5.56875,2.4828125 7.0609375,2.4828125 C8.553125,2.4828125 9.76875,3.6984375 9.76875,5.190625 C9.76875,6.6828125 8.5546875,7.8984375 7.0609375,7.8984375 Z"></path>
                    </g>
                </g>
            </g>
        </g>
    </g>
</svg>