<?xml version="1.0" encoding="UTF-8"?>
<svg width="24px" height="24px" viewBox="0 0 24 24" version="1.1" xmlns="http://www.w3.org/2000/svg"
>
    <!-- Generator: sketchtool 52 (66869) - http://www.bohemiancoding.com/sketch -->
    <title>698F5B59-22F1-4F8C-B2BA-15D64B313044</title>
    <desc>Created with sketchtool.</desc>
    <g id="1280" stroke="none" stroke-width="1" fill="none" fill-rule="evenodd">
        <g id="SigninForm-/-AllInputEmpty-1440x1024" transform="translate(-442.000000, -382.000000)" fill="#FFFFFF">
            <g id="Group-3" transform="translate(434.000000, 338.000000)">
                <g id="Group-2" transform="translate(0.000000, 36.000000)">
                    <g id="facebook" transform="translate(8.000000, 8.000000)">
                        <path d="M21,0 L3,0 C1.3455,0 0,1.3455 0,3 L0,21 C0,22.6545 1.3455,24 3,24 L12,24 L12,15.75 L9,15.75 L9,12 L12,12 L12,9 C12,6.5145 14.0145,4.5 16.5,4.5 L19.5,4.5 L19.5,8.25 L18,8.25 C17.172,8.25 16.5,8.172 16.5,9 L16.5,12 L20.25,12 L18.75,15.75 L16.5,15.75 L16.5,24 L21,24 C22.6545,24 24,22.6545 24,21 L24,3 C24,1.3455 22.6545,0 21,0 Z"
                              id="Path"></path>
                    </g>
                </g>
            </g>
        </g>
    </g>
</svg>