<?xml version="1.0" encoding="UTF-8"?>
<svg width="24px" height="19px" viewBox="0 0 24 19" version="1.1" xmlns="http://www.w3.org/2000/svg"
>
    <!-- Generator: sketchtool 52 (66869) - http://www.bohemiancoding.com/sketch -->
    <title>3A69D167-6774-4746-A591-1C3515BBB6B6</title>
    <desc>Created with sketchtool.</desc>
    <g id="1280" stroke="none" stroke-width="1" fill="none" fill-rule="evenodd">
        <g id="SigninForm-/-AllInputEmpty-1440x1024" transform="translate(-232.000000, -200.000000)"
           fill-rule="nonzero">
            <g id="logo" transform="translate(232.000000, 195.000000)">
                <g transform="translate(0.000000, 5.000000)">
                    <path d="M9.23443023,12.3253936 L19.1385778,12.3253936 L19.8396148,10.2875218 L11.251504,10.2875218 C11.1933226,10.2875218 11.1361535,10.2831873 11.0803022,10.2748235 C10.6452196,10.2351383 10.2525547,9.94679826 10.1012254,9.50689304 L8.73355923,5.53117062 C8.63877089,5.25562667 8.6550839,4.96871316 8.75870468,4.7192141 C8.90550384,4.25537139 9.33938128,3.91917261 9.85178216,3.91917261 L22.8288696,3.91917261 C23.4619551,3.91917261 23.9751724,4.43238988 23.9751724,5.06547547 C23.9751724,5.69856106 23.4619551,6.21177833 22.8288696,6.21177833 L11.3901228,6.21177833 L12.0035301,7.99491611 L21.4291477,7.99491611 C22.0622333,7.99491611 22.5754505,8.50813338 22.5754505,9.14121897 C22.5754505,9.23687538 22.5637339,9.32979521 22.5416574,9.41862161 C22.5313772,9.48535454 22.5150324,9.55210662 22.4922944,9.61820445 L21.0417728,13.8347826 C20.9001863,14.246366 20.5473391,14.525272 20.1461494,14.5919819 C20.0675286,14.6090236 19.9859017,14.6179993 19.9021784,14.6179993 L8.45206029,14.6179993 C8.12775402,14.6179993 7.83490278,14.4833243 7.62638237,14.26685 C7.50486448,14.1497853 7.40746007,14.0039307 7.34581114,13.8347107 C7.34573231,13.8344943 7.34565354,13.8342779 7.34557484,13.8340614 L3.5947827,3.51916356 L1.26961898,2.17660415 C0.721335612,1.86002301 0.533190062,1.159109 0.849235965,0.610516931 C1.16488339,0.0626165374 1.86492722,-0.125661692 2.41282761,0.189985736 C2.41315034,0.190171661 2.41347298,0.190357744 2.41379553,0.190543985 L5.04372548,1.70907671 C5.17265099,1.78351885 5.28166352,1.87921177 5.36889012,1.98917805 C5.47843576,2.10165828 5.56648117,2.23861495 5.62371216,2.3957082 C5.62379099,2.39592459 5.62386975,2.396141 5.62394845,2.39635743 L9.23443023,12.3253936 Z"
                          id="Combined-Shape" fill="#1890FF"></path>
                    <ellipse id="Oval" fill="#45485D" opacity="0.561035156" cx="10.2324486" cy="17.0737215"
                             rx="1.27247443" ry="1.27366984"></ellipse>
                    <ellipse id="Oval-Copy" fill="#45485D" opacity="0.561035156" cx="16.3403259" cy="17.0737215"
                             rx="1.27247443" ry="1.27366984"></ellipse>
                </g>
            </g>
        </g>
    </g>
</svg>